<svg xmlns="http://www.w3.org/2000/svg" viewBox="0 0 100 100">
  <defs>
    <linearGradient id="lotus-gradient" x1="0%" y1="0%" x2="0%" y2="100%">
      <stop offset="0%" style="stop-color:#D4AF37;stop-opacity:1" />
      <stop offset="100%" style="stop-color:#1E4B87;stop-opacity:1" />
    </linearGradient>
  </defs>
  
  <!-- Lotus petals -->
  <path d="M 50 80 Q 30 60 30 40 Q 30 20 50 10 Q 70 20 70 40 Q 70 60 50 80" 
        fill="url(#lotus-gradient)" opacity="0.9"/>
  <path d="M 50 80 Q 25 70 20 50 Q 20 30 50 20 Q 80 30 80 50 Q 75 70 50 80" 
        fill="url(#lotus-gradient)" opacity="0.7"/>
  <path d="M 50 80 Q 20 80 15 60 Q 15 40 50 30 Q 85 40 85 60 Q 80 80 50 80" 
        fill="url(#lotus-gradient)" opacity="0.5"/>
  
  <!-- Center -->
  <circle cx="50" cy="50" r="8" fill="#D4AF37"/>
</svg>
